<?xml version="1.0" encoding="utf-8"?>
<!-- Generator: Adobe Illustrator 16.0.0, SVG Export Plug-In . SVG Version: 6.00 Build 0)  -->
<!DOCTYPE svg PUBLIC "-//W3C//DTD SVG 1.1//EN" "http://www.w3.org/Graphics/SVG/1.1/DTD/svg11.dtd">
<svg version="1.1" id="Layer_1" xmlns="http://www.w3.org/2000/svg" xmlns:xlink="http://www.w3.org/1999/xlink" x="0px" y="0px"
	 width="841.89px" height="595.28px" viewBox="0 0 841.89 595.28" enable-background="new 0 0 841.89 595.28" xml:space="preserve">
<path d="M564.195,278.14c-56,0-114.5-22-155.5-111.5c-21-46-49.5-66-78.5-66c-45.5,0-88,50.5-88,126c0,98.5,89,268,194,268
	c23.5,0,36.5-15,36.5-35c0-10-5-17.5-5-26c0-12,16.5-19.5,40.5-19.5c24.5,0,46.5-9,46.5-28c0-13.5-11.5-21.5-11.5-32.5
	c0-22,56.5-15,56.5-51C599.695,289.64,588.195,278.14,564.195,278.14L564.195,278.14z M294.695,269.64c-11.5,0-20-16.5-20-37.5
	c0-21.5,8.5-38.5,20-38.5s21,17,21,38.5C315.695,253.14,306.195,269.64,294.695,269.64L294.695,269.64z M369.195,247.14
	c-12,0-21.5-13.5-21.5-31s9.5-31.5,21.5-31.5s21.5,14,21.5,31.5S381.195,247.14,369.195,247.14z"/>
</svg>
