<?xml version="1.0" encoding="utf-8"?>
<!-- Generator: Adobe Illustrator 16.0.0, SVG Export Plug-In . SVG Version: 6.00 Build 0)  -->
<!DOCTYPE svg PUBLIC "-//W3C//DTD SVG 1.1//EN" "http://www.w3.org/Graphics/SVG/1.1/DTD/svg11.dtd">
<svg version="1.1" id="Layer_1" xmlns="http://www.w3.org/2000/svg" xmlns:xlink="http://www.w3.org/1999/xlink" x="0px" y="0px"
	 width="841.89px" height="595.28px" viewBox="0 0 841.89 595.28" enable-background="new 0 0 841.89 595.28" xml:space="preserve">
<path d="M539.694,130.39l-42.5-3.5c21,73,39,219.5,39,341.5h41.5c-2.5-59.5-8.5-126.5-15.5-181.5c13,0,29,1.5,42,5.5v-34
	c-13.5-1.5-28-3.5-44.5-5l-7-50.5h47.5c7.5-15,13-30.5,13.5-45h-69L539.694,130.39z M515.694,283.39c-2-11-2.5-21-4.5-32.5
	c-19-1-37.5-2-58.5-2v-30.5h-39v31c-25,0-42,0.5-57,1.5c0-1.5,0.5-3,0.5-4c2.5-16,4.5-29.5,8-45h139l-9.5-44h-121.5
	c2-11.5,5.5-21.5,8-31l-42.5,3.5c-26.5,108-35,220-38,338h41c0-61,6.5-120.5,11.5-185.5c24.5-1.5,48.5-2,72.5-2
	C455.194,280.89,484.694,281.39,515.694,283.39L515.694,283.39z M322.694,157.89h-94.5c1.5,14.5,6,30,14.5,45h71.5L322.694,157.89z
	 M301.694,285.89c0-9,2-20.5,4.5-32.5c-27,1-56.5,5.5-61.5,7v31.5C244.694,291.89,281.194,286.89,301.694,285.89z"/>
</svg>
