<?xml version="1.0" encoding="utf-8"?>
<!-- Generator: Adobe Illustrator 16.0.0, SVG Export Plug-In . SVG Version: 6.00 Build 0)  -->
<!DOCTYPE svg PUBLIC "-//W3C//DTD SVG 1.1//EN" "http://www.w3.org/Graphics/SVG/1.1/DTD/svg11.dtd">
<svg version="1.1" id="Layer_1" xmlns="http://www.w3.org/2000/svg" xmlns:xlink="http://www.w3.org/1999/xlink" x="0px" y="0px"
	 width="841.89px" height="595.28px" viewBox="0 0 841.89 595.28" enable-background="new 0 0 841.89 595.28" xml:space="preserve">
<path d="M605.694,169.89c-20-41-52.5-51.5-82.5-51.5c-33.5,0-61,14-61,14c-31.5-21.5-60-29-84-29c-65.5,0-100.5,58.5-100.5,58.5
	l2.5,3.5c21-11.5,39.5-15.5,55.5-15.5c33.5,0,55,16.5,55,16.5c-93.5,8.5-118,91.5-118,109.5h4c47.5-39,103.5-49,134-51.5
	c-31.5,61.5-46,118-51,157.5c-93,4.5-123.5,60-123.5,60s37.5,50,157.5,50c119.5,0,156.5-50,156.5-50s-24-47-99-57l-18,48.5l-6.5,0.5
	c0-7-0.5-13-0.5-20c0-74.5,20-151,27-177c20,18,54,56.5,68,103.5h4c11.5-17.5,15.5-34,15.5-49c0-43.5-36-74.5-36-74.5
	c43.5,5.5,71,81.5,71,81.5h5c7.5-18.5,10.5-34.5,10.5-49c0-66-70.5-87-70.5-87c11-1.5,20-3,29-3c26,0,44.5,8,53,13L605.694,169.89z"
	/>
</svg>
