<?xml version="1.0" encoding="utf-8"?>
<!-- Generator: Adobe Illustrator 16.0.0, SVG Export Plug-In . SVG Version: 6.00 Build 0)  -->
<!DOCTYPE svg PUBLIC "-//W3C//DTD SVG 1.1//EN" "http://www.w3.org/Graphics/SVG/1.1/DTD/svg11.dtd">
<svg version="1.1" id="Layer_1" xmlns="http://www.w3.org/2000/svg" xmlns:xlink="http://www.w3.org/1999/xlink" x="0px" y="0px"
	 width="841.89px" height="595.28px" viewBox="0 0 841.89 595.28" enable-background="new 0 0 841.89 595.28" xml:space="preserve">
<path d="M433.695,427.39c0-24.5-6-28.5-11.5-28.5c-16.5,0-21,15-43.5,15c-36.5,0-55.5-44.5-55.5-74.5c0-36.499,23-73.999,57-73.999
	c16.5,0,27.5,15,42.5,15c6.5,0,11-4,11-17.5v-102.5c0-31.5-10-65-10-65l-41,7l19.5,65c-12.5-14-34.5-33.5-72.5-33.5
	c-74.5,0-80.5,42.5-80.5,42.5l59-16c20,0,39.5,16,53.5,31.5c-6.5-0.5-12-1-17.5-1c-62,0-112.5,52.5-112.5,130
	c0,105.499,70.5,178.999,186.5,178.999c5,0,10.5-0.5,15.5-0.5V427.39z M490.695,188.891c6-11,11-17.5,19.5-26.5l80,15
	c0,0-4-43.5-74.5-43.5c-24,0-39.5,7.5-53.5,17v118.5c0,22.5-13.5,40-35.5,40c-30,0-32.5-14-45.5-14c-19.5,0-29,23-29,43.999
	c0,20,8.5,45.5,26.5,45.5c12.5,0,17.5-15,48-15c23.5,0,35.5,15.5,35.5,40v84.5c81.5-21.5,148-96,148-186.499c0-74-49-119-110-119
	H490.695z"/>
</svg>
