<?xml version="1.0" encoding="utf-8"?>
<!-- Generator: Adobe Illustrator 16.0.0, SVG Export Plug-In . SVG Version: 6.00 Build 0)  -->
<!DOCTYPE svg PUBLIC "-//W3C//DTD SVG 1.1//EN" "http://www.w3.org/Graphics/SVG/1.1/DTD/svg11.dtd">
<svg version="1.1" id="Layer_1" xmlns="http://www.w3.org/2000/svg" xmlns:xlink="http://www.w3.org/1999/xlink" x="0px" y="0px"
	 width="841.89px" height="595.28px" viewBox="0 0 841.89 595.28" enable-background="new 0 0 841.89 595.28" xml:space="preserve">
<path d="M421.695,458.641c-77,0-148.5-68-148.5-149c0-48.5,27.5-79.5,70.5-79.5c19,0,39.5,6.5,59,19.5h38c19-13,40-19.5,59-19.5
	c43,0,71,31,71,79.5C570.695,388.141,499.195,458.641,421.695,458.641L421.695,458.641z M415.695,101.641l-39,6.5l18.5,61.5
	c-11.5-13.5-32.5-32-68.5-32c-70.5,0-76,40.5-76,40.5l56-15c18.5,0,37,15,50.5,29.5c-6.5-0.5-11.5-1-16.5-1
	c-59,0-106.5,49.5-106.5,123c0,99.5,70.5,179,186.5,179c95,0,187-58.5,187-183.5c0-71-47.5-116.5-106.5-116.5c-10.5,0-22,4-22,4
	c6-11,14-22,22.5-30.5l80.5,15c0,0-9.5-41.5-83-41.5c-38,0-58,30-58,30l-3.5,51.5h-5L415.695,101.641z"/>
</svg>
