<?xml version="1.0" encoding="utf-8"?>
<!-- Generator: Adobe Illustrator 13.0.0, SVG Export Plug-In . SVG Version: 6.00 Build 14948)  -->
<!DOCTYPE svg PUBLIC "-//W3C//DTD SVG 1.1//EN" "http://www.w3.org/Graphics/SVG/1.1/DTD/svg11.dtd">
<svg version="1.1" id="Layer_1" xmlns="http://www.w3.org/2000/svg" xmlns:xlink="http://www.w3.org/1999/xlink" x="0px" y="0px"
	 width="841.891px" height="595.281px" viewBox="0 0 841.891 595.281" enable-background="new 0 0 841.891 595.281"
	 xml:space="preserve">
<path d="M391.434,72.956c0,0-62.274,31.445-41.311,68.44c20.964,37.611,41.311,36.378,17.264,83.854
	c0-3.699,78.306-30.829,31.446-89.403C368.621,100.085,391.434,72.956,391.434,72.956L391.434,72.956z M443.227,51.993
	c0,0-53.642,27.746-35.762,60.424c18.497,31.445,35.762,30.829,15.415,72.756c0-3.7,68.439-27.746,26.513-78.305
	C424.114,76.039,443.227,51.993,443.227,51.993L443.227,51.993z M591.823,346.716c0-14.797,14.181-27.745,29.595-27.745
	c15.415,0,27.13,12.948,27.13,27.745c0,15.415-11.715,27.746-27.13,27.746C606.003,374.462,591.823,362.131,591.823,346.716
	L591.823,346.716z M556.677,254.846c0-8.016-6.166-13.564-15.414-13.564H232.974c-9.865,0-15.415,5.549-15.415,13.564v112.217
	c0,91.253,78.306,162.776,170.175,162.776c83.854,0,154.145-61.041,167.093-141.812c14.181,22.196,38.845,36.378,66.59,36.378
	c43.16,0,78.922-35.145,78.922-78.306c0-43.16-35.762-78.922-78.922-78.922c-27.129,0-50.56,14.182-64.74,35.145V254.846z"/>
</svg>
